<?xml version="1.0" encoding="UTF-8" standalone="no"?>
<!-- Created with Inkscape (http://www.inkscape.org/) -->

<svg
   xmlns:dc="http://purl.org/dc/elements/1.1/"
   xmlns:cc="http://creativecommons.org/ns#"
   xmlns:rdf="http://www.w3.org/1999/02/22-rdf-syntax-ns#"
   xmlns:svg="http://www.w3.org/2000/svg"
   xmlns="http://www.w3.org/2000/svg"
   xmlns:sodipodi="http://sodipodi.sourceforge.net/DTD/sodipodi-0.dtd"
   xmlns:inkscape="http://www.inkscape.org/namespaces/inkscape"
   width="290"
   height="290"
   viewBox="0 0 290 290"
   id="svg2"
   version="1.1"
   inkscape:version="0.91 r13725"
   sodipodi:docname="clear-button.svg">
  <defs
     id="defs4" />
  <sodipodi:namedview
     id="base"
     pagecolor="#ffffff"
     bordercolor="#666666"
     borderopacity="1.0"
     inkscape:pageopacity="0.0"
     inkscape:pageshadow="2"
     inkscape:zoom="1.0984811"
     inkscape:cx="188.61287"
     inkscape:cy="91.45011"
     inkscape:document-units="px"
     inkscape:current-layer="layer1"
     showgrid="false"
     inkscape:window-width="2560"
     inkscape:window-height="1322"
     inkscape:window-x="1280"
     inkscape:window-y="1"
     inkscape:window-maximized="1"
     fit-margin-top="0"
     fit-margin-left="0"
     fit-margin-right="0"
     fit-margin-bottom="0"
     units="px" />
  <metadata
     id="metadata7">
    <rdf:RDF>
      <cc:Work
         rdf:about="">
        <dc:format>image/svg+xml</dc:format>
        <dc:type
           rdf:resource="http://purl.org/dc/dcmitype/StillImage" />
        <dc:title></dc:title>
      </cc:Work>
    </rdf:RDF>
  </metadata>
  <g
     inkscape:label="Layer 1"
     inkscape:groupmode="layer"
     id="layer1"
     transform="translate(-172.05502,-327.63119)">
    <path
       style="fill:#7f7f7f;fill-opacity:1;stroke:none;stroke-opacity:1"
       d="m 317.05502,327.63119 a 145,145 0 0 0 -145,145 145,145 0 0 0 145,145 145,145 0 0 0 145,-145 145,145 0 0 0 -145,-145 z m -53.03321,56.61328 53.03321,53.03125 53.0332,-53.03125 35.35547,35.35352 -53.0332,53.0332 53.0332,53.0332 -35.35547,35.35547 -53.0332,-53.0332 -53.03321,53.0332 -35.35351,-35.35547 53.03125,-53.0332 -53.03125,-53.0332 35.35351,-35.35352 z"
       id="path4236"
       inkscape:export-xdpi="4.0300002"
       inkscape:export-ydpi="4.0300002"
       inkscape:connector-curvature="0" />
  </g>
</svg>
