<?xml version="1.0" encoding="UTF-8"?>
<!DOCTYPE svg PUBLIC "-//W3C//DTD SVG 1.1//EN" "http://www.w3.org/Graphics/SVG/1.1/DTD/svg11.dtd">
<svg xmlns="http://www.w3.org/2000/svg" xmlns:xlink="http://www.w3.org/1999/xlink" version="1.1" id="OMEGA_T_LOGO" width="276.065" height="303.862" viewBox="0 0 276.065 303.862" overflow="visible" enable-background="new 0 0 276.065 303.862" xml:space="preserve">
  <rect id="SQUARE_BACK" x="47.107" y="74.904" fill="#F7F9F9" stroke="#000000" stroke-width="4" width="226.958" height="226.958"/>
  
  <g id="OMEGA_GROUP">
    <defs>
      <filter id="OMEGA_SHADOW" x="0" y="0" width="200%" height="200%">
        <feGaussianBlur in="SourceAlpha" stdDeviation="5"/>
        <feOffset dx="10" dy="10"/>
        <feComponentTransfer>
          <feFuncA type="linear" slope="0.2"/>
        </feComponentTransfer>
        <feMerge>
          <feMergeNode/>
          <feMergeNode in="SourceGraphic"/>
        </feMerge>
      </filter>
    </defs>
    <linearGradient id="OMEGA_GRAD" gradientUnits="userSpaceOnUse" x1="127.8472" y1="271.7109" x2="127.8472" y2="32.0532">
      <stop offset="0.0053" style="stop-color:#6F868C"/>
      <stop offset="0.0165" style="stop-color:#72888F"/>
      <stop offset="0.1363" style="stop-color:#8CA0A6"/>
      <stop offset="0.2648" style="stop-color:#A4B6BC"/>
      <stop offset="0.4031" style="stop-color:#B7C9CF"/>
      <stop offset="0.5558" style="stop-color:#C7DADF"/>
      <stop offset="0.7342" style="stop-color:#D1E3E8"/>
      <stop offset="1" style="stop-color:#D4E6EB"/>
    </linearGradient>
    <path id="OMEGA" filter="url(#OMEGA_SHADOW)" fill="url(#OMEGA_GRAD)" d="M7.659,141.266c0,41.372,28.661,70.73,54.891,88.936c-7.586,0-20.791,0-20.791,0 c-16.153,0-20.249-0.706-27.689-19.266c-0.304-0.759-1.039-1.256-1.856-1.256H2c-0.567,0-1.108,0.241-1.487,0.663 s-0.562,0.985-0.501,1.55l6.201,58.031c0.109,1.017,0.966,1.787,1.989,1.787h93.383c0.708,0,1.364-0.375,1.724-0.985 l2.917-4.955c0.368-0.624,0.369-1.398,0.003-2.024l-0.506-0.864c-14.385-24.598-41.163-70.384-40.804-119.125 c0-29.854,5.41-53.143,16.081-69.235c10.699-16.135,26.338-24.316,46.483-24.316c20.274,0,36.027,7.953,46.821,23.637 c10.688,15.531,16.107,37.858,16.107,66.362c0,51.946-29.167,101.864-41.622,123.18l-0.417,0.714 c-0.397,0.68-0.358,1.529,0.099,2.17l3.283,4.604c0.375,0.526,0.981,0.839,1.628,0.839h91.923c0.994,0,1.837-0.73,1.979-1.714 l8.391-58.031c0.083-0.574-0.088-1.156-0.468-1.596c-0.38-0.438-0.932-0.69-1.512-0.69h-10.216 c-0.806,0-1.532,0.483-1.844,1.226c-7.783,18.531-11.865,19.296-26.243,19.296c0,0-17.382,0-24.938,0 c23.381-18.69,56.85-46.58,56.85-90.352c0-63.469-49.123-107.797-119.458-107.797C57.082,32.053,7.659,76.963,7.659,141.266z"/>
    <path id="OMEGA_STROKE" fill="#1E282C" d="M127.845,30.053c-17.435,0-33.882,2.683-48.883,7.973C64.179,43.24,51.146,50.858,40.225,60.667 c-11.013,9.892-19.58,21.744-25.462,35.229c-6.042,13.851-9.105,29.115-9.105,45.37c0,21.473,7.679,41.858,22.823,60.588 c7.582,9.379,16.92,18.207,27.854,26.347H41.758c-8.347,0-12.896-0.369-16.173-2.465c-3.317-2.122-6.026-6.481-9.66-15.545 c-0.609-1.518-2.079-2.511-3.713-2.511H2c-1.135,0-2.216,0.481-2.975,1.325c-0.759,0.845-1.123,1.972-1.002,3.1l6.201,58.031 c0.217,2.032,1.932,3.574,3.977,3.574h93.382c1.417,0,2.728-0.75,3.447-1.971l2.917-4.955c0.735-1.248,0.737-2.797,0.006-4.048 l-0.507-0.867c-6.861-11.732-17.231-29.463-25.685-50.082c-4.62-11.265-8.205-22.288-10.656-32.763 c-2.861-12.226-4.27-24.086-4.188-35.254c0-0.009,0-0.019,0-0.029c0-14.669,1.357-27.923,4.033-39.395 c2.639-11.314,6.581-20.977,11.715-28.719c10.305-15.542,25.384-23.422,44.816-23.422c19.577,0,34.775,7.661,45.174,22.771 c5.137,7.465,9.082,16.756,11.725,27.616c2.674,10.988,4.03,23.643,4.03,37.612c0,22.021-5.354,46.297-15.911,72.155 c-8.788,21.52-19.212,39.359-25.44,50.018l-0.416,0.712c-0.794,1.36-0.717,3.06,0.197,4.342l3.283,4.603 c0.751,1.052,1.964,1.677,3.257,1.677h91.923c1.988,0,3.674-1.46,3.959-3.428l8.392-58.031 c0.166-1.147-0.175-2.313-0.936-3.189c-0.76-0.878-1.862-1.382-3.023-1.382h-10.216c-1.611,0-3.064,0.966-3.688,2.45 c-3.762,8.958-6.614,13.492-9.842,15.649c-3.081,2.059-7.149,2.421-14.558,2.421h-19.256 c10.409-8.448,22.111-18.599,31.947-31.103c6.544-8.32,11.629-16.954,15.112-25.663c4.054-10.133,6.108-20.76,6.108-31.585 c0-15.938-3.008-30.927-8.938-44.549c-5.799-13.318-14.252-25.029-25.125-34.809c-10.83-9.742-23.774-17.308-38.474-22.488 C161.795,32.729,145.336,30.053,127.845,30.053L127.845,30.053z M9.658,141.266c0-64.045,49.244-107.213,118.187-107.213 c69.307,0,117.458,43.168,117.458,105.797l0,0l0,0c0,45.646-37.572,73.952-60.553,92.351h4l0,0h2.41l0,0h24.23 c15.321,0,20.063-1.414,28.088-20.521h10.216l0,0l0,0l-8.392,58.03H153.38l-3.283-4.603l0,0l0,0 c12.402-21.231,42.313-71.829,42.313-124.903c0-57.323-22.25-91.999-64.929-91.999c-42.315,0-64.564,35.385-64.564,95.536 c-0.002,0.292-0.003,0.584-0.003,0.877c-0.035,49.569,27.808,96.569,41.586,120.137l0,0l0,0l-2.917,4.955H8.201L2,211.681l0,0 l0,0h10.212c7.661,19.106,12.405,20.521,29.546,20.521h20.159l0,0h3.202l0,0h4C48.326,218.756,9.658,188.326,9.658,141.266 L9.658,141.266L9.658,141.266z"/>
  </g>
  
  <g id="T_GROUP">
    <linearGradient id="T_GRAD" gradientUnits="userSpaceOnUse" x1="189.8682" y1="187.1973" x2="229.1293" y2="2.4878">
      <stop offset="0.0053" style="stop-color:#F89838"/>
      <stop offset="0.206" style="stop-color:#F6B236"/>
      <stop offset="0.4384" style="stop-color:#F6CA32"/>
      <stop offset="0.6554" style="stop-color:#F7DB2B"/>
      <stop offset="0.8491" style="stop-color:#F7E628"/>
      <stop offset="1" style="stop-color:#F7EC25"/>
    </linearGradient>
    <path id="T_SHADOW" opacity="0.75" d="M213.799,0.835c-2.431,0-6.061,0.811-9.55,4.678c0,0,0.001-0.001,0.002-0.001c-12.968,14.276-41.592,38.801-52.015,43.395 l-0.067,0.029l-0.066,0.032c-4.885,2.37-9.878,5.65-9.878,12.002c0,2.827,1.132,5.242,3.185,6.801 c1.667,1.265,3.807,1.906,6.361,1.906h15.028l-0.316,40.34v0.015v0.016c0,6.482-0.182,16.369-0.356,25.93 c-0.173,9.441-0.336,18.357-0.336,24.157c0,8.939,4.283,17.845,11.75,24.43c3.834,3.38,8.338,6.031,13.389,7.878 c5.359,1.96,11.189,2.954,17.326,2.954c19.707,0,37.266-4.894,50.775-14.149l0.046-0.032l0.046-0.032 c3.351-2.438,4.382-6.308,2.564-9.492l-2.351-4.887l-0.024-0.054l-0.027-0.052c-1.671-3.229-3.932-3.908-5.533-3.908 c-1.076,0-2.141,0.321-3.168,0.952c-4.635,2.506-9.133,3.484-15.994,3.484c-3.84,0-7.019-1.641-9.449-4.874 c-1.67-2.224-2.989-5.201-3.924-8.853c-1.118-4.365-1.684-9.711-1.684-15.889v-26.556c0-14.072,0-28.579,0.517-41.378h36.72 c1.664,0,5.678-0.555,6.991-5.7l0.009-0.028l0.007-0.029l3.387-14.113c0.671-1.711,0.509-3.624-0.467-5.223 c-1.175-1.926-3.331-3.076-5.768-3.076h-39.853l1.225-31.475l0.003-0.078V9.877C222.303,4.553,218.806,0.835,213.799,0.835 L213.799,0.835z M146.225,60.97c0-3.361,2.078-5.712,7.624-8.403c11.438-5.04,40.544-30.252,53.366-44.37 c2.426-2.69,4.853-3.362,6.584-3.362c3.117,0,4.504,2.354,4.504,5.042l0,0l0,0l-1.387,35.631h4l0,0h0.003l0,0h40.009 c1.64,0,2.633,1.046,2.639,2.148c0.002,0.294-0.066,0.593-0.212,0.876l-3.47,14.455c-0.344,1.346-1.038,2.69-3.116,2.69h-40.543 c-0.683,13.567-0.693,29.414-0.693,44.653c0,0.242,0,0.483,0,0.725v26.556c0,27.564,10.742,33.616,19.057,33.616 c7.279,0,12.479-1.008,18.021-4.033c0.38-0.246,0.76-0.403,1.141-0.403c0.659,0,1.319,0.468,1.98,1.746l2.424,5.041 c0.292,0.474,0.42,0.946,0.422,1.404c0.006,1.17-0.812,2.241-1.809,2.966c-5.892,4.037-21.483,13.449-48.514,13.449 c-23.564,0-38.465-15.799-38.465-31.262l0,0l0,0c0-11.767,0.692-37.313,0.692-50.087l0.316-40.371l0,0l0,0l0,0l0.031-4h-19.06 C148.651,65.677,146.225,64.333,146.225,60.97L146.225,60.97L146.225,60.97z"/>
    <path id="T" fill="url(#T_GRAD)" d="M208.565,4.022l0.005-0.005c-13.372,14.725-41.87,39.116-52.692,43.885 c-4.611,2.235-8.817,4.998-8.817,10.233c0,4.137,2.891,6.707,7.545,6.707c0,0,13.82,0,17.044,0 c-0.029,3.673-0.332,42.355-0.332,42.355c0,6.515-0.182,16.412-0.356,25.982c-0.173,9.431-0.336,18.338-0.336,24.118v0.001 c0,15.996,15.471,33.262,40.466,33.262c19.303,0,36.47-4.771,49.645-13.8c2.63-1.911,3.397-4.74,1.956-7.07l0.102,0.186 l-2.424-5.041c-0.812-1.572-1.76-2.461-2.924-2.77c-1.01-0.268-2.05-0.06-3.089,0.614l0.131-0.078 c-4.995,2.727-9.779,3.789-17.063,3.789c-11,0-17.058-11.228-17.058-31.615V108.22c0-14.82,0.018-30.067,0.621-43.378 c3.495,0,38.616,0,38.616,0c1.816,0,4.168-0.728,5.054-4.195l3.476-14.483l-0.166,0.448c0.29-0.564,0.435-1.173,0.435-1.781 c0-0.705-0.194-1.409-0.579-2.04c-0.809-1.326-2.326-2.118-4.059-2.119c0,0-38.158,0-41.934,0 c0.144-3.685,1.306-33.556,1.306-33.557c0-4.288-2.613-7.116-6.502-7.116C214.608,0,211.563,0.698,208.565,4.022z"/>
    <path id="T_STROKE" fill="#EF3B39" d="M216.634-2c-2.431,0-6.061,0.811-9.55,4.678c0,0,0.001-0.001,0.002-0.001 c-12.968,14.276-41.592,38.801-52.015,43.395l-0.067,0.029l-0.066,0.032c-4.885,2.37-9.878,5.65-9.878,12.002 c0,2.827,1.132,5.242,3.185,6.801c1.667,1.265,3.807,1.906,6.361,1.906h15.028l-0.316,40.34v0.015v0.016 c0,6.482-0.182,16.369-0.356,25.93c-0.173,9.441-0.336,18.357-0.336,24.156c0,8.939,4.283,17.845,11.75,24.43 c3.834,3.38,8.338,6.031,13.389,7.878c5.359,1.96,11.189,2.954,17.326,2.954c19.707,0,37.266-4.894,50.775-14.149l0.046-0.032 l0.046-0.032c3.351-2.438,4.382-6.308,2.564-9.492l-2.351-4.887l-0.024-0.054l-0.027-0.052 c-1.671-3.229-3.932-3.908-5.533-3.908c-1.076,0-2.141,0.321-3.168,0.952c-4.635,2.506-9.133,3.484-15.994,3.484 c-3.84,0-7.019-1.641-9.449-4.874c-1.67-2.224-2.989-5.201-3.924-8.852c-1.118-4.365-1.684-9.711-1.684-15.889V108.22 c0-14.072,0-28.579,0.517-41.378h36.72c1.664,0,5.678-0.555,6.991-5.7l0.009-0.028l0.007-0.029l3.387-14.113 c0.671-1.711,0.509-3.624-0.467-5.223c-1.175-1.926-3.331-3.076-5.768-3.076H223.91l1.225-31.475l0.003-0.078V7.042 C225.138,1.718,221.641-2,216.634-2L216.634-2z M149.06,58.135c0-3.361,2.078-5.712,7.624-8.403 c11.438-5.04,40.544-30.252,53.366-44.37C212.476,2.672,214.902,2,216.634,2c3.117,0,4.504,2.354,4.504,5.042l0,0l0,0 l-1.387,35.631h4l0,0h0.003l0,0h40.009c1.64,0,2.633,1.046,2.639,2.148c0.002,0.294-0.066,0.593-0.212,0.876l-3.47,14.455 c-0.344,1.346-1.038,2.69-3.116,2.69h-40.543c-0.683,13.567-0.693,29.414-0.693,44.653c0,0.242,0,0.483,0,0.725v26.556 c0,27.563,10.742,33.615,19.057,33.615c7.279,0,12.479-1.008,18.021-4.033c0.38-0.246,0.76-0.403,1.141-0.403 c0.659,0,1.319,0.468,1.98,1.746l2.424,5.041c0.292,0.474,0.42,0.946,0.422,1.404c0.006,1.17-0.812,2.241-1.809,2.966 c-5.892,4.037-21.483,13.449-48.514,13.449c-23.564,0-38.465-15.799-38.465-31.262l0,0l0,0c0-11.767,0.692-37.313,0.692-50.086 l0.316-40.371l0,0l0,0l0,0l0.031-4h-19.06C151.486,62.842,149.06,61.498,149.06,58.135L149.06,58.135L149.06,58.135z"/>
  </g>
</svg>